/* XPM */
static char *b8a63e66e8f242faa663cbc4eba39fbatWTAOkZJTTQdZROl[] = {
/* columns rows colors chars-per-pixel */
"64 64 6 1 ",
"  c None",
". c black",
"X c #010101",
"o c gray8",
"O c #444444",
"+ c gray27",
/* pixels */
"                                                                ",
"                                                                ",
"                                                                ",
"                                                                ",
"                                                                ",
"                                                                ",
"                                                                ",
"                                                                ",
"                                                                ",
"                                                                ",
"                    ....                                        ",
"                    ....                                        ",
"                  ..++..                                        ",
"                  ..++..                                        ",
"                ..++++++..                                      ",
"                ..++++++..                                      ",
"              ..OO.X++++OO..                                    ",
"              ..OO..+++++O..                                    ",
"                ..OO..++++++..                                  ",
"                ..OO..++++++..                                  ",
"                  ..++..++++++..                                ",
"                  ..++..++++++..                                ",
"                    ..++.X++++++..                              ",
"                    ..++.X++++++..                              ",
"                      ..+O.X++++++..                            ",
"                      ..+O..++++++..                            ",
"                        .X+O.X+++++O..                          ",
"                        .X+O.X+++++O..                          ",
"                          ..++..++++++..                        ",
"                          ..++..++++++..                        ",
"                          ....++..++++++..                      ",
"                          ....++..++++++..                      ",
"                        ..    ..++.X++++++....                  ",
"                        ..    ..++.X++++++....                  ",
"                      ..        ..+O.X++++++..                  ",
"                      ..        ..+O..++++++..                  ",
"                        ..    ..oo.X+O.X++..                    ",
"                        ..    ..oo.X+O.X+O..                    ",
"                          ....oooooo..++..                      ",
"                          ....oooooo..++..                      ",
"                            ..oooooo..++++..                    ",
"                            ..oooooo..++++..                    ",
"                          ..oooooo..  ....                      ",
"                          ..oooooo..  ....                      ",
"                          ..oooooo..                            ",
"                          ..oooooo..                            ",
"                        ..oooooo..                              ",
"                        ..oooooo..                              ",
"                        ..oooooo..                              ",
"                        ..oooooo..                              ",
"                          ..oo..                                ",
"                          ..oo..                                ",
"                            ..                                  ",
"                            ..                                  ",
"                                                                ",
"                                                                ",
"                                                                ",
"                                                                ",
"                                                                ",
"                                                                ",
"                                                                ",
"                                                                ",
"                                                                ",
"                                                                "
};
