/* XPM */
static char *_0f02982fbda4af4ea061e47799cbc3738tTlbYmI5aaswZp[] = {
/* columns rows colors chars-per-pixel */
"64 64 110 2 ",
"   c None",
".  c #000000",
"X  c #080500",
"o  c #0E0B00",
"O  c gray6",
"+  c #180000",
"@  c #120F00",
"#  c #161300",
"$  c #1A1600",
"%  c #1E1A06",
"&  c #230000",
"*  c #2D0000",
"=  c #230D00",
"-  c #340000",
";  c #241E00",
":  c #272000",
">  c #2A2400",
",  c #2F2800",
"<  c #342C00",
"1  c #382F00",
"2  c #3C3200",
"3  c #202020",
"4  c #333334",
"5  c #440000",
"6  c #570000",
"7  c #740000",
"8  c #7B0000",
"9  c #423700",
"0  c #453A00",
"q  c #4A3E00",
"w  c #4F4200",
"e  c #524400",
"r  c #574900",
"t  c #5C4D00",
"y  c #625300",
"u  c #6C5B00",
"i  c #725F00",
"p  c #746200",
"a  c #796600",
"s  c #7C6800",
"d  c #444446",
"f  c #4A4A4A",
"g  c #5A5A5D",
"h  c #716B49",
"j  c #61605C",
"k  c #747577",
"l  c #737479",
"z  c #880000",
"x  c #BB0000",
"c  c #C30000",
"v  c #CC0000",
"b  c #D50000",
"n  c #D90000",
"m  c #AC5500",
"M  c #826D00",
"N  c #867100",
"B  c #8A7400",
"V  c #927B00",
"C  c #8F7D1C",
"Z  c #86782D",
"A  c #D14E00",
"S  c #E65500",
"D  c #E85500",
"F  c #817E6C",
"G  c #9C8300",
"H  c #A18700",
"J  c #A48A00",
"K  c #AB8F00",
"L  c #AD9100",
"P  c #B29600",
"I  c #B69800",
"U  c #BA9C00",
"Y  c #BEA000",
"T  c #C4A501",
"R  c #C8A700",
"E  c #CCAB00",
"W  c #D6B402",
"Q  c #D9B600",
"!  c #DCB900",
"~  c #E1BD00",
"^  c #E7C200",
"/  c #EAC500",
"(  c #EFC900",
")  c #EECA0F",
"_  c #F3CC00",
"`  c #F4CE0A",
"'  c #FFD600",
"]  c #FFD900",
"[  c #EAC712",
"{  c #8B845C",
"}  c #9B8F55",
"|  c #938A5C",
" . c #A4964D",
".. c #888265",
"X. c #E7CD44",
"o. c #D8C565",
"O. c #DAC86A",
"+. c #D4C67C",
"@. c #888888",
"#. c #989898",
"$. c gray64",
"%. c #B6B6B6",
"&. c #B7B7BB",
"*. c gray72",
"=. c gray74",
"-. c #BCBDC0",
";. c #BBBDC4",
":. c gray92",
">. c #F4F4F4",
",. c white",
/* pixels */
"                        . . .                       . . . . . . . . . . . . . . .                                               ",
"                        . . .                       . . . . . . . . . . . . . . .                                               ",
"                        $ $ $                       $ $ $ $ $ $ $ $ $ $ $ $ $ $ $                                               ",
"                        ! ! V . .         . . . . X H ~ ! ! ! ! ! ! ! ! ! ! ! ~ K X . . . .                                     ",
"                        ] ] H . . .     . . . . . . I ] ] ] ] ] ' ] ] ] ] ] ] ] U . . . . . .                                   ",
"                        W Q G > : :     ; > : > : , Y ' ' ' ' ' ' ' ' ' ' ' ' ] T , : > > : ;                                   ",
"                        # @ y / ( M . . N ( ^ / / / ' ' ' ' ' ' ' ' ' ' ' ' ' ' ' ^ ^ / / ( B . .                               ",
"                        . . y ] ] B . . B ] ' ' ] ' ' ' ' ' ' ' ' ' ' ' ' ' ' ' ' ' ] ' ] ] V . .                               ",
"                        . . r R R N 1 2 J ] ' ' ' ' ' ' ' ' ' ] ' ' ' ' ' ' ' ' ' ' ' ' ' ] L 1 2 ,                             ",
"                              o X a _ _ ' ' ' ' ' ' ' ' ' ' ' ' ' ' ' ' ' ' ' ' ] ' ' ' ' ' ' ( _ a . .                         ",
"                              . . p ] ' ' ' ' ' ' ' ' ' ' ' ' ' ' ' ' ' ' ' ' ' ' ' ' ' ' ' ' ' ] s . .                         ",
"                              . . p ] ' ' ' ' ' ' ' ' ' ' ' ' ' ' ' ' ' ' ' ' ' ' ' ' ' ' ' ' ' ] s . .                         ",
"                              . . p ] ' ' ' ' ' ' ' ' ' ' ' ' ' ' ' ' ' ' ' ' ' ' ' ' ' ' ' ' ' ] s . .                         ",
"                              . . p ] ' ' ' ' ' ' ' ' ' ' ' ' ' ' ' ' ' ' ' ' ' ' ' ' ' ' ' ' ' ] a . .                         ",
"                            2 y t K ] ' ' ' ' ' ' ' ' ' ' ' ' ' ' ' ' ' ' ' ' ' ' ' ' ' ' ' ] ' ] L t y 2                       ",
"                        . . y ' ' ' ' ' ' ' ' ' ' ] ' ' ' ' ' ' ' ' ] ' ' ' ' ' ' ' ' ' ' ' ' ' ' ' ' ' y . .                   ",
"                        . . y ' ' ' ' ' ' ' ' ' ' ' ' ' ' ' ' ' ' ' ' ' ' ' ' ' ' ' ' ' ' ' ' ' ' ' ' ' y . .                   ",
"                        . . t ' ' ' ' ' ' ' ' ' ' ' ] ' ' ' ' ' ' ' ' ' ' ' ' ' ' ' ' ' ' ' ' ' ' ' ' ] u . .                   ",
"                        . . y ' ' ' ' ' ' ' ' ' ' ' ' ' ' ' ' ' ' ' ' ' ' ' ' ' ' ' ' ' ' ' ' ' ' ' ' ' y . .                   ",
"                        . . y ' ' ' ' ' ' ' ' ' ' ' ' ' ' ' ' ' ' ' ' ] ] ] ' ] ] ' ' ' ' ' ' ' ' ' ' ] y . .                   ",
"                        . . y ' ' ' ' ' ' ' ' ' ' ' ' ' ' ' ' ] ' ' / M p p i i C o.O.X.' ' ' ' ' ' ' ' m 7 7 - . . . . . . . . ",
"                        . . y ' ' ' ' ] ' ' ' ' ' ' ' ' ' ' ' ' ' ] ! # . . . . 4 &.;.+.' ' ' ' ' ' ' ' D b b 5 . . . . . . . . ",
"                        . . y ' ' ' ' ' ' ' ' ' ' ' ' ' ' ' ' ' ' ] ! $ . . . . 4 =.;.+.' ' ' ' ' ' ' ] S b b 5 . . . . . . . . ",
"                        . . t ' ' ' ' ' ' ' ' ' ' ' ' ' ' ' ' ' ' ] Q $ . 3 #.$.@.d d Z ' ' ' ' ' ' ' ' S b b 7     8 z 8 + . . ",
"                        . . y ' ' ' ' ' ' ' ' ' ' ' ' ' ' ' ' ' ' ' ! $ . 4 >.,.=.. . r ' ' ' ' ' ' ' ' S b b       n n v & . . ",
"                        . . y ' ' ' ' ' ' ' ' ' ' ' ' ' ' ' ' ' ' ] Q $ . 4 :.,.%.O . r ' ' ' ' ' ' ' ' S b b       b n c & . . ",
"                        . . y ' ' ' ' ' ' ' ' ' ' ' ' ' ' ' ' ' ' ] Q $ . O d f 4 . . r ' ' ' ' ' ' ' ] S b b b b b b b c * . . ",
"                        . . t ' ] ' ' ' ' ' ' ' ' ] ' ' ' ' ' ' ' ] ! $ . . . . . . . r ' ' ' ' ' ' ' ' S b b b b b b b c & . . ",
"                        . . y _ _ _ ' ' ' ' ' ' ' ' ' ' ' ' ' ' ` ` W % X X o o o o X y ' ' ' ' ' ' ' ] S b b b b b v v x & . . ",
"                            : 1 1 V ] ' ' ' ' ' ' ' ' ' ' ' ' `  .| ..j g h Y T R R R ! ' ' ' ' ' ' ' ' S b b b b v 6 * * X . . ",
"                              . . p ] ' ' ' ' ' ' ' ' ' ' ' ] ` ..k l l k | ` ] ] ] ] ] ' ' ' ' ' ] ] ] S b b b b b - . . . . . ",
"                              . . u / / _ ] ' ' ' ' ' ' ' ' ' ` | ....F ..} ` ] ' ' ' ' ' ' ' ' ' _ ^ ^ A c c x c x * . . . . . ",
"                              . . @ : : G ] ' ' ' ' ] ' ' ' ' ' [ [ [ [ [ ) ' ' ' ' ' ' ' ' ' ' ] V ; : = & & & + & X . .       ",
"                              . . . . . B ] ] ' ' ' ' ' ' ' ' ' ] ] ] ' ' ' ' ' ' ' ' ' ' ' ' ' ] s . . . . . . . . . . .       ",
"                              . . . . . M ! ! _ ' ' ' ' ' ' ' ' ] ' ' ' ' ' ' ' ' ' ' ' ' ] _ ! ! u . . . . . . . . . . .       ",
"      . . . . . . . . .                 $ $ $ L ] ' ' ' ' ' ' ' ] ' ' ' ' ' ' ' ' ' ' ' ' ] G # $ o . .                         ",
"      . . . . . . . . .                 . . . H ] ] ] ] ] ' ' ' ' ' ' ' ' ' ' ' ] ] ] ] ] ] V . . . . .                         ",
"      . . X , < < < < ,                 > < < V E E E E W _ ' ' ' ' ' ' ' ' ' ] _ E E E E E p . . . . .                         ",
"      . . : Q _ ( _ _ K X . . . . . . . N _ ( y o @ @ o $ R ] ' ' ' ' ' ' ' ' ] Y # o o @ @ X . . .                             ",
"      . . : ^ ] ' ' ] P . . . . . . . . B ] ' t . . . . X R ] ' ' ' ' ' ' ' ' ] U X . . . . . . .                               ",
"      0 0 y ( ' ' ' ] R q 0 0 0 0 0 0 9 K ' ' N 9 0 0 9 w W ] ' ' ' ' ] ' ' ' ] U X . . . . . . .                               ",
". . $ Q ' _ ' ' ' ' ' ' ' _ ' _ _ ' _ ' ' ' ' ' _ ' _ ' _ ' ' ' ' ' ' ' ' ' ' ] U X . .                                         ",
". . $ ! ] ' ' ' ' ' ' ' ' ' ' ' ' ' ' ' ' ' ' ' ' ' ] ] ] ] ' ' ' ' ' ' ' ] ' ] U X . .                                         ",
". . $ ! ] ' ' ' ' ' ' ' ' ' ' ' ' ' ' ' ' ' ' ' ' ' Y J L / ' ' ' ' ' ' ' ' ' ] U X . .                                         ",
". . $ ! ' ' ' ' ] ' ' ' ' ' ' ' ' ' ' ' ' ' ' ' ' ' q . o R ] ' ' ' ' ' ' ' ' ] U X . .                                         ",
". . $ ! ] ' ' ' ' ' ' ' ' ' ' ' ' ' ' ' ' ' ' ' ' ' q . o R ] ' ' ' ' ' ' ' ' ] U X . .                                         ",
". . $ ! ] ' ' ' ' ' ' ' ' ' ' ' ' ' ' ' ' ' ' ' ' _ q . o R ] ' ' ' ' ' ' ' ' ] U X . .                                         ",
". . $ ! ] ' ' ' ' ' ' ' ' ' ' ' ' ' ' ' ' ' ' ' ' ' q . o R ] ' ' ' ' ' ' ' ' ] U X . .                                         ",
". . $ ~ ] ] ] ' ' ' ' ' ' ' ' ] ] ' ' ' ' ' ' ] ] ' q . X R ] ' ' ' ' ' ' ' ' ] U X . .                                         ",
"    $ p a V _ ] ' ' ' ' ' ] E s a U ' ' ' ' ' L a s M M B ^ ] ' ' ' ' ' ' ' ' ] U X . .                                         ",
"      . . : ^ ] ' ' ' ' ] ] G . . p ] ] ' ' ' t . . I ] ] ' ' ' ' ' ' ' ' ' ' ] U X . .                                         ",
"      . . : / ' ' ' ' ' ] ] G . . p ] ] ] ' ] t . . I ] ' ' ' ' ' ' ' ' ' ' ' ] U X . .                                         ",
"      . . : / ' ' ' ' ' ' ] Q G G M y y y y u N G G ~ ] ' ' ' ' ' ' ' ' ] ~ u u w . . .                                         ",
"      . . > / ' ' ' ' ' ' ' ' ] ] B . . . . . H ] ] ' ' ' ' ' ' ' ' ' ' ] R o . . . . .                                         ",
"      . . : ^ ' ' ' ' ' ' ' ' ' ] B . . X . . J ] ] ' ' ' ' ' ' ' ' ] ' ] E o . . . . .                                         ",
"            e w a _ ' ' ' ' ' ' ] ! L L P L L ~ ] ] ] ' ' ' ' ' ' ' ' ' ] E o . .                                               ",
"            . . 1 _ ] ' ' ' ' ' ' ] ] ] ] ] ] ] ' ' ' ' ' ' ' ' ' ' ' ' ] R o . .                                               ",
"            . . 2 / _ _ ' ' ' ' ' ' ' ' ' ] ' ' ' ' ' ' ' ' ' ' ' ' ' _ ' T o . .                                               ",
"                  2 2 a ' ' ' ' ' ' ' ' ' ' ' ' ] ' ' ' ' ' ' ' ' ' ~ e 2 < X . .                                               ",
"                  . . q ' ' ] ' ' ' ' ' ' ' ' ' ' ' ' ' ' ' ' ' ' ] ! $ . . . . .                                               ",
"                  . . q ^ ( _ ' ' ' ' ' ' ' ' ' ' ' ' ' ' ' ' ' ' ] Q $ . . . . .                                               ",
"                        > : s ' ' ' ' ' ' ' ' ' ' ' ' ' ' ' ' ' ' ] ! $ . .                                                     ",
"                        . . t ' ' ' ' ' ' ' ' ' ' ' ' ' ' ' ' ' ' ' ! $ . .                                                     ",
"                        . . y ' ' ] ' ' ' ' ' ' ' ' ' ' ' ' ' ' ' ] Q $ . .                                                     "
};
