/* XPM */
static char *_97bb4a6aed94a2be9d6d175aee566854PyXuEHHoE7RowNS[] = {
/* columns rows colors chars-per-pixel */
"64 64 139 2 ",
"   c None",
".  c #0B0015",
"X  c #0B0A15",
"o  c #0E0019",
"O  c #12001C",
"+  c #160021",
"@  c #1B0025",
"#  c #1E0029",
"$  c #24012E",
"%  c #270131",
"&  c #2A0134",
"*  c #270A31",
"=  c #290933",
"-  c #2E0239",
";  c #2D0D3C",
":  c #31053C",
">  c #34083E",
",  c #241C30",
"<  c #1D2227",
"1  c #24392F",
"2  c #253630",
"3  c #004E00",
"4  c #035504",
"5  c #055B07",
"6  c #16501F",
"7  c #07600A",
"8  c #076F0E",
"9  c #007507",
"0  c #03730B",
"q  c #077D0F",
"w  c #146F1F",
"e  c #067F12",
"r  c #13741E",
"t  c #185B21",
"y  c #245F2E",
"u  c #2E6B39",
"i  c #2D7939",
"p  c #2F0040",
"a  c #330244",
"s  c #390645",
"d  c #360A40",
"f  c #3A0D44",
"g  c #360149",
"h  c #3B024D",
"j  c #3D0C49",
"k  c #371141",
"l  c #3C1146",
"z  c #3F1349",
"x  c #3E0151",
"c  c #400D4D",
"v  c #42154C",
"b  c #45194F",
"n  c #420154",
"m  c #440B52",
"M  c #480D55",
"N  c #450259",
"B  c #4A025D",
"V  c #4A0B5C",
"C  c #441251",
"Z  c #491655",
"A  c #471B50",
"S  c #4A1B55",
"D  c #4D125B",
"F  c #4D1C59",
"G  c #50145F",
"H  c #4C2056",
"J  c #52265C",
"K  c #4E0162",
"L  c #510265",
"P  c #520A64",
"I  c #55056A",
"U  c #58076C",
"Y  c #560A69",
"T  c #5A0A6E",
"R  c #531363",
"E  c #561A65",
"W  c #591B67",
"Q  c #561369",
"!  c #5B156C",
"~  c #591B68",
"^  c #5D0C71",
"/  c #5E1271",
"(  c #5F1A70",
")  c #600F74",
"_  c #621276",
"`  c #66157A",
"'  c #68177C",
"]  c #661979",
"[  c #6A1A7E",
"{  c #5B2F65",
"}  c #5D2C69",
"|  c #5D3167",
" . c #0B8316",
".. c #0D8619",
"X. c #0F881B",
"o. c #11861D",
"O. c #118A1D",
"+. c #158D21",
"@. c #198F23",
"#. c #179023",
"$. c #189124",
"%. c #199225",
"&. c #1B9126",
"*. c #1A9326",
"=. c #1B9427",
"-. c #189123",
";. c #1F932B",
":. c #1C9528",
">. c #1D9629",
",. c #1E972A",
"<. c #1F972A",
"1. c #1F982B",
"2. c #20992C",
"3. c #2AA336",
"4. c #2BA437",
"5. c #2BA537",
"6. c #2AA636",
"7. c #2BA737",
"8. c #2CA438",
"9. c #2CA538",
"0. c #6C1B80",
"q. c #6D1D81",
"w. c #6E1D82",
"e. c #6F1D83",
"r. c #6F1E83",
"t. c #6D1C81",
"y. c #701F84",
"u. c #701F84",
"i. c #722186",
"p. c #722286",
"a. c #732287",
"s. c #742388",
"d. c #752489",
"f. c #742388",
"g. c #79288D",
"h. c #7B2A8F",
"j. c #7F2E93",
"k. c #813095",
"l. c #823196",
/* pixels */
"                  2.2.2.1.=.*.=.*.5 4 4 4 8  . . .X.#.#.+.#.X.X.X.X.+.#.#.#.X. .e e e                                           ",
"                  2.2.2.1.>.>.>.&.5 3 3 4 8  ... .O.*.*.*.#.X.X.X.X.+.#.#.#...q e e e                                           ",
"                  2.2.2.1.>.>.>.&.5 3 3 3 8 .. . .X.$.*.*.#.X.X.X.X.+.#.#.#...e e e  .                                          ",
"                  2.2.2.1.>.>.>.&.5 3 3 3 8  . ...X.*.$.=.#.X.X.X.X.#.#.#.#...e e e e                                           ",
"                                                  X.O.+.O.+.=.*.-.@. . . .e O.>.*.*.1.9.9.9.9.                                  ",
"                                                    X.X.O.O.1.2.2.2.q 9 9 9 @.4.3.9.9.9.9.9.9.                                  ",
"                                                    X.X.X.O.1.2.2.2.e 9 9 9 @.4.6.3.9.9.9.9.9.                                  ",
"                                                    X.X.X.O.1.2.2.>.q 9 9 9 -.5.9.9.9.9.9.9.9.                                  ",
"                                                    X.X.X.+.1.2.2.2.t 6 t 6 y u u u i 8.9.9.9.                                  ",
"                          $ $ $ $ f l l l           +.X.X.+.        l j l l s > > > >                                           ",
"                          # # $ $ f l l l           X.+.X.+.        l l z l d > > > >                                           ",
"                          $ # # $ f l l l           X.+.X.X.        l l l l d > > > >                                           ",
"                          & & & : c v v C           O.O.O.X.        j c v c f a a > d                                           ",
"                  & & & a T ! / T _ _ ` ` m & : - 1 #.#.#.r X . . O V T T T n a a a f z z z z                                   ",
"                  & & % a ) ) ) ) ` ` ` ` c : & & 1 +.#.#.r X . . . V U T T N a a g a z z z z                                   ",
"                  & & & a ^ ) ) ) ` ` ` ` m & - - 1 #.O.#.r X . . . V U T U N a g a g z z z z                                   ",
"                  & & & a ) ) _ ) ` ` ` ` m : & & 1 O.+.+.w X o o o V ^ T T N g g s s c v v v                                   ",
"        l l j l c N N N P [ u.u.u.g.h.h.h.R g g g k < < < , x N M N K K L K Y / ! / T P V P P F H H H                           ",
"        l j l l m K K K Y p.f.f.f.j.k.k.k.Q h h h p # # # % I T U U K K K K ^ ' ' ' _ U U I Y F H H H                           ",
"        l l l l m K K B I p.f.f.d.k.k.k.k.Q h h x p # # # p Y U ^ U K K K K ^ ' ' ' ) U U I P F H H H                           ",
"        l l l l m B K K I f.f.f.d.j.l.j.k.Q g h h p # # # % Y T U T K K K K T ' ' ` _ U U U Y F S H H                           ",
"        & : = : m ) ^ ^ ) _ _ ) _ e.u.u.t.P g g g g k k k l K K K K T T T U ` w.u.u.` L L L P v b b b                           ",
"        % $ % $ m t.[ [ ` I L L I ^ ^ ^ ^ x p g a h H H H F x K n N ^ / ) ` t.f.s.s.` K K K N c f f l                           ",
"        $ % $ $ m t.[ [ ` I I I I ^ ^ / / x a a a j H H H F N N N N ^ ` ` _ [ p.f.s.` K K K B f l f f                           ",
"        $ % $ $ m [ t.[ ` I I I I ^ ^ ^ ^ N a p a j H H H S x x N N ^ / ` / r.d.d.f.` L L B B c l l j                           ",
"          % % $ m ( ~ ] _ ^ T T U U Y U Y h - p p a A A H S G P D P T ^ ^ ^ / 0.` ` ! n n n n > > > >                           ",
"                  b A A F [ [ w.0.K x x x & + @ + * z z z S | | { | P K K K L L K L n $ $ $ % & & & & - : : -                   ",
"                  b b b F [ w.[ 0.K x x x & + + + ; z A z A | | { { P K K K K L L K n $ $ $ % % & & & - : & :                   ",
"                  b b b F [ [ w.( K x x x & + + + * z z z H | | | { P K K K K K L L n $ $ % $ % & & & - - : &                   ",
"                  b v v A ] _ ] ( x x x x & @ @ + ; Z Z Z F } } } } P B K K N N N N h % % % % - & - : : d d a s                 ",
"                  f f f > - - - p p d d a % @ @ @ f 0.( q.( / / _ / j a d p % # $ # * > f d f x n h n P T T T E J J J J         ",
"                  f d f > % $ $ % d d ; d % @ @ @ j 0.0.q.0.0.^ _ / j - - - $ @ + + $ f f f s x n n n T ) _ _ ~ J J J J         ",
"                  d d f d % % % $ > > > > $ $ O @ j 0.0.t.[ _ ) _ / j : : : $ + + + $ f f f f x n x N U ^ _ ) ~ J J J J         ",
"                  f f f d % % & & > : > > $ @ $ @ f 0.0.t.' _ _ _ ^ h : : : $ + @ + * f > f f n n N n T / / ) / J J J J         ",
"          A A A D P P P P ! / Q R s : : : c n N n K L P I I T T ^ ^ K V V B c l l l j h j h n P Y Y Y ^ ^ U ^ I P P P V > - > - ",
"        A A A A G ^ ^ ^ / q.r.u.[ c - : : N I L L K B B N B U U U U T I U T G A A A C x n x n ^ ^ ^ ^ ^ ^ ^ U I K K K N : > - > ",
"        A A A A G ^ ^ ^ ^ r.r.e.[ > : : : n I I I K K N B K U U U U U I U U V A A A b x h n N Y ^ ^ ^ ^ U ^ ^ I L K L N : : : : ",
"        S A A A G ^ U ^ / r.r.e.[ c : : > N I L L L N K N L U U U U U U U U G A A A v n n n n ^ ^ ^ ^ ^ ^ U ^ I K L L N : - - : ",
"      # M R E R Q K K K P / / ` ) > & = & s n n n N K K B B n m m N n m n m s > > > c B N B K ) / ^ ) ^ 0._ 0.^ I I I P b A b b ",
"# # # # V _ _ _ P x n n K ^ ^ ^ T : % $ % & & : & g N K B N > : : : - & - & = $ % $ a U U U T ) / _ 0.0.0.t.t.^ U I U ! { | | { ",
"# # # $ M _ ) _ P x n N K U ^ U Y : % % $ & : - - s K B K N > : : : - - : & & $ % $ s U U U T _ ) _ _ [ u.u.u._ U U U Q { { { { ",
"# @ @ @ M _ ) _ T x n x K U ^ ^ U : $ % % & & : - s K K K N > : : : - - & : & $ $ $ > U U U U ) _ _ _ u.u.u.u._ U U U ! { { { { ",
"$ $ $ $ m T T T K N N N K T ^ ^ T c > s > : : : - h I I I P h s s c & $ $ $ = = = & c U ^ ^ ^ ^ ^ T T _ ` ` ` T B B V P { { { { ",
"> > ; > h h x h N L K K P T ^ ^ ^ _ ` _ ` m - - > m ' 0.' ' T I L V $ . o o = > c c D ' [ [ ` K B B B K B K B c > > > >         ",
"> > > > g h x h N K K K I T T ) ^ ` ` ` ` m : : - Z 0.0.0.` U I U L @ . . . * c l l D [ [ [ ] B B B B B L B B h : : : :         ",
"> > > > g x h x N K K L I ) ) ! ) ` ' ` ' m & : - m 0.0.0.0.U I U L @ . . . * v l l D [ [ [ ] B B B B K B B K n : : > :         ",
"> > > > g g g g n K K K K T T T T / / ( / c : - - m ] [ ] / Y L L K $ o O O = c c c Z ] ] ] ( B N V N B B B B h > : > >         ",
"        % # $ # - x x x h n n n h $ O $ O $ $ % % ; j j j j d d > c n n n n B B B B M c c c c c c j c j j j j j                 ",
"        # # @ @ & h x g x h h h g + . . . @ $ $ $ & f > d d d d a d x K K K K K B L N f f f l l l l l l l f f                   ",
"        + # @ @ - x h h x h x h g + . . . @ $ $ $ & f > d d p ; > d N K N K K K L K M f f f f l l l l j f l l                   ",
"        # @ # @ & h h h x g h x h + . . o # $ $ $ & > > k a d a > > x K K K K K K K N l l f f l v l l l l f f                   ",
"                - a a a p - p - -         O + + + $ a d a j Q Q ! ! K K K N U _ _ _ R f f l f                                   ",
"                  : > - - % % % %         o o O o @ a a a x q.q.y.w.P N K N ^ t.t.t.! j f l f                                   ",
"                  - - - - % % % %         o o o . # a a p x q.q.y.w.L K K N / t.t.t.! l f l l                                   ",
"                  : - > - % % % %         o o o o # a p p x q.q.e.e.P K K K / t.t.t.! l l f f                                   ",
"                  - - - - % % % %           o O o $ p - p g Q 0./ / K K K K M C m C c l f l                                     ",
"                                                    & & & : B K K K L L L I - o O o O                                           ",
"                                                    % % % : B K K K L L L L - o O o O                                           ",
"                                                    % & % : B L L K L L L I - o O O O                                           ",
"                                                    & & & - n n x n K K K K p O O O O                                           ",
"                                                            O O O + k b b b                                                     ",
"                                                            O O O O k b v v                                                     ",
"                                                            O O O O k b b v                                                     ",
"                                                            O O O O > v v v                                                     "
};
