/* XPM */
static char *_54b85e194ce4314d6d48f71305fcca8xQ5jeedUSASHpGK3[] = {
/* columns rows colors chars-per-pixel */
"64 64 215 2 ",
"   c #2EC8B0",
".  c #2FCAB8",
"X  c #3CC4B0",
"o  c #35C6BD",
"O  c #35CABC",
"+  c #3ED2BC",
"@  c #43C8B5",
"#  c #42CEBD",
"$  c #45D3BE",
"%  c #1DCECC",
"&  c #0DCED7",
"*  c #0CCBDE",
"=  c #05CADA",
"-  c #12CCD2",
";  c #1BCDD5",
":  c #14CDDB",
">  c #1BCEDB",
",  c #0FD3DF",
"<  c #0DD8DF",
"1  c #1CD2D4",
"2  c #14D4DD",
"3  c #1CD3DB",
"4  c #1BD9DE",
"5  c #22CBC6",
"6  c #2CCBC5",
"7  c #24CDCE",
"8  c #2BCCCB",
"9  c #3AC7C1",
"0  c #32CDC5",
"q  c #3ACBC4",
"w  c #33CECA",
"e  c #2FD0C0",
"r  c #23D1CD",
"t  c #2CD2CC",
"y  c #2AD9CC",
"u  c #3BD2C4",
"i  c #33D2CC",
"p  c #3DD3CA",
"a  c #38D8CE",
"s  c #33D4C4",
"d  c #20C6D2",
"f  c #23CED3",
"g  c #2BCDD2",
"h  c #23CEDC",
"j  c #29CED9",
"k  c #32CED2",
"l  c #24D3D4",
"z  c #2BD4D4",
"x  c #2DD8D5",
"c  c #23D4DC",
"v  c #2BD4DC",
"b  c #23D9DD",
"n  c #2CD9DC",
"m  c #32D4D3",
"M  c #3AD4D3",
"N  c #32D6DB",
"B  c #33DADB",
"V  c #3FDBD8",
"C  c #3BD4D9",
"Z  c #07CEE3",
"A  c #0BCEE2",
"S  c #05CEE8",
"D  c #0BCEEC",
"F  c #13CEE4",
"G  c #1ACEE3",
"H  c #14CDEC",
"J  c #06D2E5",
"K  c #0BD4E5",
"L  c #0FD8E2",
"P  c #03D4ED",
"I  c #0CD5EC",
"U  c #05D9EE",
"Y  c #0CD9ED",
"T  c #14D4E4",
"R  c #1CD4E3",
"E  c #14D9E4",
"W  c #1DDAE4",
"Q  c #14D5EB",
"!  c #1BD5E9",
"~  c #13D9EC",
"^  c #1ADAEB",
"/  c #0ACFF1",
"(  c #03D5F4",
")  c #0BD6F3",
"_  c #04DBF5",
"`  c #0BDAF4",
"'  c #02D6FC",
"]  c #0BD6FB",
"[  c #02DBFD",
"{  c #0ADBFC",
"}  c #12D5F2",
"|  c #18D5F2",
" . c #12DAF3",
".. c #18DBF5",
"X. c #11D6F9",
"o. c #1AD6F9",
"O. c #12DBFB",
"+. c #22CFE0",
"@. c #23D4E3",
"#. c #2AD6E3",
"$. c #23DAE4",
"%. c #2ADAE2",
"&. c #22D4EA",
"*. c #28D2EB",
"=. c #23DBEA",
"-. c #2BDDEA",
";. c #31D5E1",
":. c #32DCE3",
">. c #12E0EE",
",. c #1EE1EC",
"<. c #02E0F6",
"1. c #0CE1F5",
"2. c #04E1FF",
"3. c #0BE1FE",
"4. c #1BE4F3",
"5. c #13E4FE",
"6. c #18E1FF",
"7. c #25E0E3",
"8. c #2FE0E6",
"9. c #25E1ED",
"0. c #40CFC9",
"q. c #44CDC5",
"w. c #40D7C8",
"e. c #7EF9CD",
"r. c #6FF8DE",
"t. c #7EFCD3",
"y. c #74F3DE",
"u. c #78F7DA",
"i. c #77FDDC",
"p. c #7CFEDD",
"a. c #4AF3ED",
"s. c #57F5E7",
"d. c #5AF4E6",
"f. c #56F3ED",
"g. c #5AF6EB",
"h. c #57F9EB",
"j. c #5DFBEE",
"k. c #46F5F4",
"l. c #4EF8F7",
"z. c #43F6FA",
"x. c #4DF7FD",
"c. c #44FBFF",
"v. c #4BFAFD",
"b. c #4BF5F4",
"n. c #51F5F2",
"m. c #58F6F7",
"M. c #54FBF5",
"N. c #5CFDF4",
"B. c #55F6FB",
"V. c #5EF6FA",
"C. c #52FFFF",
"Z. c #56FFFF",
"A. c #54FDFD",
"S. c #5CFFFB",
"D. c #5FFFF8",
"F. c #5CFEFD",
"G. c #65F5E6",
"H. c #6DF7E7",
"J. c #65FAE7",
"K. c #6DFDE5",
"L. c #64F7ED",
"P. c #69F5EC",
"I. c #64FCED",
"U. c #68FFEB",
"Y. c #6DFFEF",
"T. c #6BFDEC",
"R. c #73F6E3",
"E. c #74FEE4",
"W. c #7BFEE4",
"Q. c #74FFEC",
"!. c #7BFFEB",
"~. c #63F7F6",
"^. c #64FBF2",
"/. c #66FFF2",
"(. c #60FBF7",
"). c #64FEF4",
"_. c #6DFEF2",
"`. c #69FFF7",
"'. c #6EFFF7",
"]. c #6FFFF4",
"[. c #6BFEF3",
"{. c #61FFFF",
"}. c #63FFFF",
"|. c #67FFFF",
" X c #65FFFF",
".X c #64FEFD",
"XX c #6AFFFA",
"oX c #69FFFF",
"OX c #6EFFFF",
"+X c #6BFFFD",
"@X c #70F7F0",
"#X c #72FFF2",
"$X c #73FFF3",
"%X c #78FFF2",
"&X c #7BFFF3",
"*X c #73FFF8",
"=X c #75FFFA",
"-X c #70FFFF",
";X c #77FFFE",
":X c #73FFFB",
">X c #79FFFB",
",X c #84FCCF",
"<X c #8BFDCD",
"1X c #84F7D6",
"2X c #84FDD5",
"3X c #88FFD4",
"4X c #80FFDF",
"5X c #83FFDC",
"6X c #8AFFDD",
"7X c #90FFDC",
"8X c #83FFE4",
"9X c #8AFFE3",
"0X c #82FFEB",
"qX c #8BFFEB",
"wX c #82FFF1",
/* pixels */
"] { _ <.[ [ [ [ [ P ^ l.%X;XT _ ] [ [ [ [ [ [ [ [ [ [ ' [ [ [ [ { Q }./.[.g ..[ ' [ 2._ _ [ 2._ T z Y.Q..XZ.X.] ' ] ] [ [ [ [ _ ",
"[ [ <._ { [ [ [ [ 1.E %.Q.*X2 [ [ ' [ [ [ [ [ [ [ [ [ [ [ [ [ [ ' } S.p ^.z Z [ [ [ [ [ { { [ ` 4 M.[.OXt R O.' ] [ ' [ [ [ [ [ ",
"2._ [ _ _ [ [ [ [ ( I c $X=XR ` { [ [ [ [ [ [ [ 2.[ [ [ [ 2.] [ _ E -X#XI.l I _ 3.[ [ ] [ ' [ ) z oXA.3 E J ` { [ [ [ [ [ [ [ [ ",
"[ [ [ { [ _ [ [ [ ) X.3 '._.> X.[ [ [ [ [ [ [ [ [ 2._ 2.[ [ [ [ [ & #XE.U.y ~ [ ( [ { { 3.P X.^ }.}.> Q ` 2.U U [ _ [ [ [ [ [ [ ",
"[ [ [ [ [ [ [ [ ( {  .- XXOX2 ` [ [ [ [ [ [ [ [ [ [ [ [ [ [ [ ( ( 3 Q.p.W./.* _ [ [ [ [ U ^ 3 Z.v.@.~ ( [ 3.[ [ [ [ [ [ ] [ [ [ ",
"[ [ [ [ [ [ [ [ { Y ~ $.oXS.^ _ [ [ [ [ [ [ [ [ [ [ [ ] [ [ [ [ O.@._.8XW._.=.{ [ [ [ ( ,.l S.oX3 ~ [ [ [ [ [ [ [ [ 2._ _ [ [ 2.",
"[ [ [ [ [ [ [ [ { J $.A.F.z K _ [ [ <.[ [ _ 2._ [ [ [ [ [ ' [ [ ( R g '.R.*X! ] { [ ` ! 7 N._.N.W U [ [ [ [ ' [ [ [ [ [ _ [ [ [ ",
"[ [ _ 2.[ [ [ [ [ ~ f }.}.c ` _ [ _ [ _ <._ _ _ [ [ [ [ [ [ [ ] { } > oXQ.=X! ( ( } ! #.).=XJ.i 1 Y P [ 2.' ' [ [ [ [ 2._ _ [ [ ",
"[ _ [ ( [ ( { ` { Y N ).F.R ` [ [ 2.[ [ 2.[ [ [ [ ' 3.[ ( ( { [ [ [ T l Q.$X3 Y ^ c }.*XY.Q.u 0 z 1 Q ` { _ [ ] [ [ { [ 3._ [ [ ",
") ` ] { ` { ) ) ] } 5 `.v.L ] [ [ [ ' ' ' [ ] ' [ ' [ [ 3.[ [ 3.2._ U 4 Q.Q.1 4 l s.%X8XR.# I./.'.S.R ^  .` { [ [ [ ] [ ( [ [ [ ",
"[ [ { ] [ [ { ) P ! }.}.4 1.[ [ [ [ 3.{ ] _ ` [ [ 2.2._ _ _ ` ( [ _ 1.2 /.*Xr 7 _.!.t.t.0XE.!.!.!.&XS.; L { [ ' [ ' ' [ [ 3.[ 2.",
"[ ' { ] [ ' _ Y Q @.oXS.< _ ( 2.[ ' [ ] { { P _ _ _ _ ` Y L W E Q  .U 4 /.$Xa s.!.5X5Xp.Q._.%XW.W.!.U.m 2 ] 2.[ [ [ [ [ [ [ ( { ",
"[ [ { { [ [ ) R %.F.}.v ~ 3.( [ ] ] ' ( { { ]  .Q ! 3 f oX'.Q./.}.j @.N q @X#X#X!.0XH..Xb -.7 j.u.6X!.oXR ) [ 2.<.2._ [ ] ) @.h ",
"P P )  .) Y W l .X.XZ.W K { ] ] [ { ] [ _ ) I R l B.OXI.$X$Xr.#X}.B.}.V.q.R.0X!.Q.*XB > } Q ^ f 0X7Xp.*Xn ! ( [ 2.( U ~ T %.{.P.",
"c c c f n B /.Y.#XoX-.J ` _ [ [ 2.3.[ [ [ ) ! c }.#XQ.$X[.F.#.R ^ =.l.`.W.9X2XW.).c : ..) { ` 3 Q.3X1X0Xs.l Q ` (  .R n '.Q.W.0X",
"F.}.F.}.V.g.%XW.!.*XT ` ` P { [ P _ U _ ~ 9.v.}.#XQ._.w z G D O.( Q 4 i E.4Xu.&Xr K ` ` [ _ ( ^ oX!.8Xp.W.#Xz c R c F.I.!.i.E.E.",
"F.A.{.}.V.N.#X!.8X$X@.X.U _ [ ' U _ ~ 2 x `.`.'.'.F.$.A ^ ~ O.[ ( { I 4 w =X'.8 4 Y [ ' 2.2.( Y 2 r Q.p.5X4X0XQ.#XQ.W.W.W.Q.h.y ",
"> -.#.; 4 1 k G.8XW.g R W T  .) I >.R z U.E.#X[.}.%.I ' _ ( [ [ 3.( U =.XX[.oXj E _ _ 2.[ [ { I  .3 '.i.3X3X1X6X9X3X3X8X&XF.b T ",
"I J Y ~ _ ` ~ n Q.i.&X*XT.6 N h n j V.=X!.Q.N.r @.Q ` ] [ 2.2.P _ ~ T % _.%XoX#.) 2.2._ [ 2.[ ` X.: 8 $ W.6X2X,X<X<X3XW.6 =.( [ ",
"_ _ _ [ [ [ ` 2 _.i.!.R.wX!.[..XV.`.=X&XE.K.i 1 T Y { [ [ [ [ 2._ ~ ; M.Q.%XF.G O.[ _ [ [ [ ( 1.: n ).T.8X5X2X3X<X<X6X$Xc D [ [ ",
"[ [ ] ( ( ( ] =.}.*XP.@X!.W.i.E./.N.}.XXp ~. Xj ~ ( Y 1.2.[ [ [ ` , x ).&X;Xh ! ( 3.( [ ] _ ( < x U.#X!.9X1X6X5X3X6XW.`.T 2.[ ' ",
"3.[ { { ] { ` H g }.C w OX=X$X#X}.z l l 8 {.OXk T { K U ( [ 2.[ J $.).Y.#XS.T ] [ _ [ O.( I 4.1 U.E.!.8X1X2XW.Q.Q.*X[.z ) 2.[ [ ",
"] ] [ ' [ [ { ~ l F.c : T ^ R R ! ~ ~ = $.B.#X[.=.I O.X.` { ' ] R F.#XK.h.4 >.3._ [ [ [ O.! v ^.!.8XW.1X7XqXJ.F.#.> R } [ 2.{ ` ",
"[ ' [ [ [ [ { I l Z.c.~ _ ' ] { ] ] [ 1.T 1 '.#Xk.! Q X.) ] [ ` @..X*XI.b J U <._ [ [ ` A c ~.&X8Xp.8XW.W.!.z R ) ] ] [ [ [ ` ) ",
"[ 2._ [ [ ' 2.} ;  XZ.F { [ { ] ' ] [ ] } ! }.'.`.F.c T  .` ' ] +.g }.Z.Q _ _ 3.[ _ ( } c .X!.W.8X0XJ.`.h.z T ` [ [ _ [ [ [ [ [ ",
"_ 2.<.P _ 2.(  .k XX}.> { ] [ ] [ [ _ { ( ..c }.[.#XN.c F } ) ^ v F.F.-. .( [ ' ` Q  .=.M.Q.!.W.wXJ.N b b T ` [ [ 2.<._ [ [ ' [ ",
"_ [ ` <.[ 2._ 2 /.Q.^.%./ { _ <.2._ _ [ ] ] | h #XQ.H.^.%.@.> r ^.-XV.+.Y { ( P  .Q c ).!.0XQ.'.n.;.* I ~ U ` [ [ 2.[ [ [ ] ] [ ",
"[ [ ( 1.[ [ U 1 #X!.}.c ) ' 3._ [ [ [ [ [ { ) 4 q W.0X$X}.F.t g.$X#Xz R K 5.>.Y Q h ).!.qXy.-Xg h T ` [ P _ { ] [ 2.[ [ [ [ [ _ ",
"[ [ ] ' ] O.&.F.*X'.c ) ] [ ( ` _ _ [ [ [ _ U R i H.$X#XXXXX;X$XQ.. f F X.P | F +.Z.&XW.W.T.l R T ` 3.2.[ [ { ' [ [ [ [ [ [ [ [ ",
"' [ 5.{ ] H C ~.$XoX! ( [ ' 3.P [ [ 2.[ _ _ ~ 2 F.OX'.w w }.*X$XE.K.z c $.R &.v M #X!.i.i.  j T ^ K ( _ ` { [ [ [ [ [ [ [ [ [ [ ",
"[ [ _ _ D b U.!.E.OXF 3.[ ' { ' [ { ' ] (  .@.F.oXoXl 4 1 l A./.!.8XW.%X*X#X_.Q.E.p.t.2Xp.Q.M j @.R R R W T ` _ [ [ [ [ { ( [ [ ",
"[ ) ~ E W k.#XQ.X -X&.J  .) [ [ ` ` X.| Q R F.}.}.> R I >.L 2 r /.E.0X!.%X$XQ.Q.W.5X3X3X5XW.P.XX}.F.S.F.n.x - E Y ` } ) Y [ [ [ ",
"T 4 m }.F.F.t j.*XQ.[.g @.F U (  .T +.j N F.Z.Z.Q ` [ [ _ _ ` Y 3 n B.OX}.}.N.N.H.W.5Xe.2Xp.0X0X%X&X!.!.Q.E.#X*Xk d *.R I { ' [ ",
"c x.oXOXF.$.3 ; .X'.=X;Xm.n W W ; v }.}.F.A.c K { [ [ [ 2.[ [ ] P ~ ! *.G &.3 z o @ 8X4XE.Q._.#X$XQ.Q.Q.&X!.W.0XH.#X~.Z.$.E  .] ",
"F.}.x.G } ) O.~ 3 M.}./.^.[.`.'.*X#X[.}.n T Q ..] ] _ _ 2.[ [ ( 3.( { ) [ ` K 3 i Q.W.%Xj.l 3 W 4 b n a.}.I.Q.0X0XE.wX$XXX5 l 4 ",
"> &.| { ] [ [ ( I R 3 z g oX#XQ.!.Q.;XF.! I ` ] ) U _ _ [ 2.[ [ [ 2.[ ( ( _ ^ c I.#X*X}.c T P ` ) P Q G > v w.I.>XQ.!.!.Q.#Xd.s ",
") ` <._ 3.( _ 3.3.` ] )  .: m O E.*Xg.n Q X.[ 2.` ` ` [ [ [ [ [ 2.[ [ { Y 3 t /.*X#Xn.c T ) { ] [ 2.( ( ` I ^ E ; z  XT.%XE.!.E.",
"` _ _ ( ` _ ` _ ( [ 3.' ' T r I.#X`.z T ) ] [ [ _ _ [ [ [ [ [ [ [ [ 2.( T B Q.!.&X}.2 4.) O.{ ' [ [ 2.[ [ [ ( ` J T h N .X'.T.Q.",
"I Q P 3.` P 3.P _ [ ( ] o.@./.Q.s.z T _ { [ [ [ [ [ _ [ ' ] [ [ 2.( _ ` v g.!.Q.h.3 ` P [ 3.' [ [ [ _ [ 2.2.[ ] { O.)  .Y L 2 2 ",
"v.3 ..] ] { ` 1._ ( { X.! Z.Q.Q.w 4 L _ _ [ { [ [ [ 2.[ [ [ [ [ _ ` J W .X$XQ.#Xr ^ _ [ [ [ [ [ _ _ _ [ [ [ ' ] [ [ _ [ _ <.3._ ",
"`.n ! ) ] ( 1.U P 3.{ Q h OXK.+ 8 %.~ K Q I ] ] [ [ [ [ [ ` [ ' ) F $.S.#X&X^.z E ) ' ] [ ' [ [ [ { [ [ [ _ ] ( [ _ [ _ _ 2.[ [ ",
"Q./.l.=.] [ ( 1.` ) I -.V.Y.E.K..XM.x.b c ! ` ] 3.[ [ [ { 1.2.] o.#.8 U.%X;XF.! ] [ ] [ ] ] [ [ [ [ [ [ [ [ { ` _ _ [ [ [ [ [ [ ",
"i.E.I.r E 1.( [ ) Q c m.&X4XW.W.E.Q.E.$X/.z T ` _ [ [ [ ] ) ) | G j _.K.Q..X$.I [ [ [ [ [ [ _ _ _ _ ` ` _ ` ] { [ [ [ [ [ 2.[ [ ",
"E.E.E._.%.T { { Q %.F.#X!.!.Q.Y.I.$XE.W.&X`.l ^ ) { ( [ X.X.! R z f.*X>XS.c Q { [ 2.[ [ [ _ <._ 2._ _ { ` [ [ ' [ [ [ [ [ [ [ <.",
"9 %XW.!..X%.Q T l }.$X%XJ.t l R @.j }.I.T._.oX}.f @.^ ~ Y Y R ; OX-X}.F.3 ) ( [ [ [ [ [ [ [ [ [ [ [ [ [ ' [ [ [ 2._ _ [ [ [ [ [ ",
"j  X&X0XQ.`.f f }.#XwXY.8 R I [ ] } +.j N }.OXOXF.F.z.7.2 ,.c.}./.#Xz R ` { [ [ [ [ [ [ [ ' [ [ [ 2.[ [ [ [ ' [ 2.2.2.[ [ [ ] ] ",
"F :.^.Q.8XW.$ U.$X$X_.k G ) _ [ [ ( O. .= W z A.F.F.F.Z.v.v.Z.}.'.q 3 J _ 2._ 2.[ [ ' ] ] [ [ [ [ [ [ [ [ [ ' ] [ [ [ [ [ [ [ ] ",
"I ~ j XX&X0Xi.W.!.&XP.v | [ [ _ [ _ ' { ] ` T 3 > 3 c c c b c l './.x L 1._ [ _ [ ` ] X.X.Q Y Y ) { ( [ [ [ ] [ [ [ [ [ [ _ ) } ",
"_ ) ~ =.B.[.Q.!.0X!.[.c ~ [ [ 2.[ [ [ [ [ [ ) Y ) `  .) Q ~ ) R '.Q./.z L [ 2.2.J ^ R G z S.#X/.c T ( { ( ] { ' ] ' [ [ [ I c F.",
"[ ( 2.~ R ;..X#XQ.!.XXf .._ [ [ [ [ [ [ [ [ [ [ [ _ [ [ ` [ 2.L ).Q.0X^.%.~ U J W ; z n.`.%XW.W.I.l ..( { { [ 3.[ [ [ [ ` : m /.",
"[ [ _ _ ~ Q @.r $XQ.i c K { _ [ [ [ [ [ [ _ _ [ 2.[ _ 2.2.[ [ Y l J.8XW.T.w l l ).[.Y.>X_.$Xr.!.Q.XXR  .X. .( _ [ _ { ( ! n #XE.",
"' [ ' ( { ( I 4 #X!.d.z 2 Y 3.[ [ [ [ [ [ _ [ [ 2.2.[ [ 2.2.[ Y 3 i R.qX!.#X.XF.-X;X*X*X^.i i [.!.#XZ.@.&.! T ~ L ~ Q #.#.N.Q.W.",
"' { [ 2.[ [ _ 3 Q.4XQ.XX3 >.P { [ [ [ [ [ [ [ [ [ [ _ _ [ [ ] ] Q c 0.R.!.&X}.}.}.(.{.{.-.! E c /.!.*Xj.OXm m 7 % z w [.#X$XQ.i.",
"] [ [ [ ' [ 2.2 Q.p.W.#Xa.3  .( ] [ ' [ [ [ [ [ [ [ [ [ [ [ ( L T j [.!.Q.O g j h c *.G X.( ] Q z [.#X&XQ.!.H._./.XXQ.Q.!.Q./.6 ",
"' { [ 2.{ ` ) 4 ).Q.W.!.-Xr Q { [ ( ] [ [ [ [ [ [ { ' ] ] ] E 7.oXQ.!.!.Q.p b E Y ) Y ` [ [ ` U 2 ; k @XQ.8Xp.i.Q.K.&X>XI.F.c T ",
"[ [ [ [ ' ` I E b ).!.W.T.oX>  .] [ ` _ [ [ [ ` ` ` ] X...T $.a.Q.W.E.E.E.I.1 L ` ( _ [ [ _ { 1.1.I *.F.*XW.8Xp.Q./.'.oXv @.Y ` ",
"[ [ [ [ ] { X.) ~ 3 OXQ.!.Q.S.4 ( <._ _ 3.[ ] ( ` U I T n }.oX'.#XE.!.E.i.!.`.h } { ] _ [ [ _ _ _ _ / &.w J.wX#Xr c c ! Q ) _ <.",
"2.[ [ [ [ { O.( ] Q 0 !.W.!.U.8 E _ _ [ ] ( O.O.I 2 2 B N.'.-X-X`.t 0 _.!.wXQ.}.G I ` ] [ 2.( [ _ [ ] | g /.'.N.T Y } X.] ] _ _ ",
"[ [ [ [ ' [ [ ' ] &.O R.W.W.!.#XZ.R I ` J  .Q ! c C [.$X!.;X~.j @.: 2 n U.R.!.#Xn T P 3.[ ' 3.' [ ` [ T i /.`.l U _ { ] { [ [ [ ",
"[ [ { [ ' [ ] ) Q n Q.qXW.!.W.Q.I.z @.T T 4 b M.}.XXQ.!.>X}.n ! ) { ` E z /.$X#Xf.-.` [ [ [ [ [ { { { T oX=Xn.W _ [ [ { { ] [ [ ",
"[ ( { [ [ [ ` ^ B g.R.!.J.u J.Q.!.J.m m OX_.K.Q.Q.Q.;X}.b : I P ( [ [ [ Q %.(.OX}.#.H ' [ [ { ( ] ) J 3 OXOXv.~ [ [ [ [ ] [ [ [ ",
"{ [ _ [ [ [ Z n )._.!.=Xt 5 w *XK.!.H.J.&XE.W.W.K.*XN.c T U _ 2.[ 3.[ ( [ Q ;.oXOXZ.| ) [ [ ] { { Y T l OX}.@.` [ [ [ [ [ [ [ [ ",
"' ' [ [ 2.` W A.'.'.N.f W R j `.#X!.!.0XH./.}.S.M.l $.Y ` 3.[ [ [ [ P 2.2.( F v oX-XA.W ) 3.' [ ' } b }.}.r W ) ] [ [ [ [ [ [ [ ",
"[ [ [ ' { K b N._./.7 3 Y I h }.9 !.8X8X# w g v c 3 J U _ [ [ [ [ [ _ ( [ 2.Q > w XXZ.4 ~ _ [ [ [ ) Z.oXN.b T ` X.{ _ [ [ [ [ [ "
};
