/* XPM */
static char *_dbc80e9fbfa4c4af46ed358fcb8c5a30C74ZoPmHOz3ASgK[] = {
/* columns rows colors chars-per-pixel */
"64 64 247 2 ",
"   c None",
".  c black",
"X  c #010101",
"o  c #020202",
"O  c gray1",
"+  c gray2",
"@  c gray3",
"#  c #090909",
"$  c gray5",
"%  c #0E0E0E",
"&  c gray6",
"*  c #111111",
"=  c gray7",
"-  c #131313",
";  c gray8",
":  c gray9",
">  c #191919",
",  c gray10",
"<  c #1B1B1B",
"1  c gray11",
"2  c #1D1D1D",
"3  c gray13",
"4  c #232323",
"5  c #252525",
"6  c gray16",
"7  c #2C2C2C",
"8  c #2F2F2F",
"9  c #323232",
"0  c #353535",
"q  c #393939",
"w  c #3A3A3A",
"e  c gray24",
"r  c #3E3E3E",
"t  c #232170",
"y  c #252370",
"u  c #242271",
"i  c #242272",
"p  c #252372",
"a  c #282674",
"s  c #2A2874",
"d  c #29277E",
"f  c #2A277F",
"g  c #414141",
"h  c gray26",
"j  c #434343",
"k  c gray27",
"l  c #464646",
"z  c #484848",
"x  c #494949",
"c  c gray31",
"v  c #505050",
"b  c #515151",
"n  c gray32",
"m  c #535353",
"M  c gray33",
"N  c #555555",
"B  c gray34",
"V  c #585858",
"C  c gray35",
"Z  c #5A5A5A",
"A  c gray36",
"S  c #5D5D5D",
"D  c gray37",
"F  c #5F5F5F",
"G  c gray38",
"H  c gray39",
"J  c #646464",
"K  c #686868",
"L  c #6F6F6F",
"P  c #727272",
"I  c gray45",
"U  c #747474",
"Y  c #767676",
"T  c #777777",
"R  c gray47",
"E  c #797979",
"W  c #7B7B7B",
"Q  c #7C7C7C",
"!  c gray49",
"~  c #7E7E7E",
"^  c gray50",
"/  c #2E2C82",
"(  c #3D3C80",
")  c #3E3C82",
"_  c #2E2B90",
"`  c #302D91",
"'  c #33309A",
"]  c #424084",
"[  c #47459D",
"{  c #4540D0",
"}  c #4540D1",
"|  c #4541D1",
" . c #4642D4",
".. c #4944D1",
"X. c #4742DB",
"o. c #4944DB",
"O. c #4841DD",
"+. c #4843DD",
"@. c #4943DD",
"#. c #4941DE",
"$. c #4942DE",
"%. c #4944DD",
"&. c #4944DE",
"*. c #4A45DE",
"=. c #4D47DE",
"-. c #4D48DF",
";. c #4D53DD",
":. c #4D52DE",
">. c #4D54DE",
",. c #5157DE",
"<. c #5D59DE",
"1. c #5268DD",
"2. c #5368DE",
"3. c #5369DE",
"4. c #5673DE",
"5. c #5D57E0",
"6. c #5E59E0",
"7. c #6679E0",
"8. c #76ADBE",
"9. c #70AFC3",
"0. c #71B0C3",
"q. c #66B3DD",
"w. c #66B3DE",
"e. c #67B3DE",
"r. c #6AB5DE",
"t. c #68B8DE",
"y. c #69BFDD",
"u. c #71BFD7",
"i. c #72BFD7",
"p. c #69C2DD",
"a. c #6BC3DD",
"s. c #6AC0DE",
"d. c #69C3DF",
"f. c #6AC2DE",
"g. c #6AC3DE",
"h. c #6BC3DE",
"j. c #6AC4DF",
"k. c #6DC4DE",
"l. c #6EC4DE",
"z. c #74C0D7",
"x. c #71C0D8",
"c. c #7AC6E0",
"v. c #7BC8E0",
"b. c #7AC9E1",
"n. c #808080",
"m. c #818181",
"M. c #828181",
"N. c #808283",
"B. c #818383",
"V. c gray51",
"C. c #838383",
"Z. c #818384",
"A. c #848484",
"S. c gray52",
"D. c #868686",
"F. c gray53",
"G. c #888888",
"H. c #8D8D8D",
"J. c #8E8E8E",
"K. c gray56",
"L. c #8E9091",
"P. c #909090",
"I. c #929292",
"U. c gray58",
"Y. c #989898",
"T. c #9B9B9B",
"R. c #9C9B9B",
"E. c gray61",
"W. c #9D9D9D",
"Q. c gray62",
"!. c #969EA0",
"~. c #9EA9AC",
"^. c #9FAAAD",
"/. c gray63",
"(. c #A2A2A2",
"). c gray64",
"_. c #A4A4A4",
"`. c #A5A5A5",
"'. c #A6A5A5",
"]. c gray65",
"[. c #A7A6A6",
"{. c #A7A7A7",
"}. c #A8A7A7",
"|. c #A0ABAE",
" X c gray66",
".X c #A9A9A9",
"XX c #AAAAAA",
"oX c gray67",
"OX c #ACACAC",
"+X c gray68",
"@X c #AEAEAE",
"#X c #AFAFAF",
"$X c gray69",
"%X c #B1B1B1",
"&X c #B4B4B4",
"*X c #80B8C9",
"=X c #B7B6CD",
"-X c #B8B8D1",
";X c #BEBED1",
":X c #C0BFE8",
">X c #D0D0D0",
",X c gray83",
"<X c #D5D5D5",
"1X c #D8D8D8",
"2X c #DADDDE",
"3X c gainsboro",
"4X c gray87",
"5X c #C1C0EC",
"6X c #C2C4EC",
"7X c #D9D9E2",
"8X c #DAD9E3",
"9X c #DADAE6",
"0X c #DDDDEF",
"qX c #CDE3EA",
"wX c #CAE0EC",
"eX c #CBE4EC",
"rX c #DEE1EF",
"tX c #E2E2E2",
"yX c gray89",
"uX c #E4E4E4",
"iX c #E7E7E7",
"pX c #E2EAEC",
"aX c #E1ECEF",
"sX c gray91",
"dX c #E9E9E9",
"fX c #EAEAEA",
"gX c #EAEAED",
"hX c #ECECEC",
"jX c gray93",
"kX c #EEEEEE",
"lX c #EFEFEF",
"zX c gray94",
"xX c #F1F1F1",
"cX c gray95",
"vX c #F3F2F2",
"bX c #F3F3F2",
"nX c #F3F3F3",
"mX c #F4F2F2",
"MX c #F4F3F2",
"NX c #F4F4F2",
"BX c #F4F4F3",
"VX c #F5F5F3",
"CX c #F4F4F4",
"ZX c #F5F5F4",
"AX c gray96",
"SX c #F6F6F6",
"DX c gray97",
/* pixels */
"                                                                                                                                ",
"                                                                                                                                ",
"                                                                                                                                ",
"                                                                                                                                ",
"    . . . . . . . . . . . . . . . . . . . . . . . .                                                                             ",
"    . . . . . . . . . . . . . . . . . . . . . . . .                                                                             ",
"    . . . . . . . . . . . . . . . . . . . . . . . .                                                                             ",
"    . . . + - - - - - - - - - - - - - ; ; & . . . .                                                                             ",
"    . . . 6 H.I.I.I.I.I.I.I.I.I.I.I.I.I.I.J . . . .                                                                             ",
"    . . . 8 ).{.{.{.{.{.{.{.{.{.{.{.{.{.oXE + . . .                                                                             ",
"    . . . 8 ).).{.{.{.{.).{.).{.{.{.{.{.oXY . . . .                                                                             ",
"    . . . 9 @X$X@X@X@X@X@X@X@X@X@X@X@X$X@XQ + . . .                                                                             ",
"    . . . h yXsXsXsXsXsXsXsXsXsXuXsXsXuXsX{.+ . . .                                                                             ",
"    . . . k hXcXcXcXcXcXcXcXcXcXcXcXSXcXSX@X+ . . .                                                                             ",
"    . . . k hXcXcXcXcXcXcXcXcXcXcXcXcXcXSX@X+ . . .                                                                             ",
"    . . . k hXcXcXcXcXcXcXcXcXcXcXcXcXcXSXoX+ . . .                                                                             ",
"    . . . k hXcXcXcXcXcXcXcXcXcXcXcXcXcXSX@X+ . . . . . . . . . . . . . . . . . . . . . . . o o . . . . . .                     ",
"    . . . k hXcXcXcXcXcXcXcXcXcXcXcXcXcXSXoX+ . . . . . . . . . . . . . . . . . . . . . . . o o . . . . . .                     ",
"    . . . k hXcXcXcXcXcXcXcXcXcXcXcXcXcXSXoX+ . . . . . . . . . . . . . . . . . . . . . . . O O . . . . . .                     ",
"    . . . k hXcXcXcXcXcXcXcXcXcXcXcXcXcXSX@X+ . . @ 2 2 2 2 2 2 2 2 2 2 2 2 2 2 2 2 2 2 2 2 1 1 2 2 2 2 2 <                     ",
"    . . . k hXcXcXcXcXcXcXcXcXcXcXcXcXcXcX@X+ . . r >X<X<X<X<X<X<X<X<X,X,X,X,X<X<X<X<X,X,X,X,X,X<X>X>X<X1XQ.+ . . .             ",
"    . . . k hXcXcXcXcXcXcXcXcXcXcXcXcXcXSXoX+ . . k hXSXcXcXcXcXcXcXcXcXcXSXcXcXmXmXcXmXmXmXmXmXcXSXSXcXSX@X+ . . .             ",
"    . . . k hXcXcXcXcXcXcXcXcXcXcXcXcXcXSXoX+ . . k hXcXcXcXSXcXcXcXcXcXcXcXcXcXcXcXcXcXmXmXmXmXcXcXcXcXSX@X+ . . .             ",
"    . . . k hXcXcXcXcXcXcXcXcXcXcXcXcXcXSX@X+ . . k hXcXcXhXsXuXsXsXsXsXsXsXsXsXsXsXsXsXiXiXtXyXuXsXcXcXSX$X3 2 2 <             ",
"    . . . k hXcXcXcXcXcXcXcXcXcXcXcXcXcXSXoX+ . . k hXcXBX4X$X@X$X@X@X@X@X@X@X@X@X@X$X@X@X}.J.J.H.oXhXcXcXsX<X<X1XQ.+ . . .     ",
"    . . . k hXcXcXcXcXcXcXcXcXcXcXcXcXcXSXoX+ . . k hXcXcX3X{.{.{.{._.{.{.{._.{._.{.{._.{.R.M.M.Q ).cXcXcXcXcXcXSX@X+ . . .     ",
"    . . . k hXcXcXcXcXcXcXcXcXcXcXcXcXcXcX@X+ . . k hXcXmX3X}.{._.{._._.'._.{._._._.{.{.{.T.8.! m.).hXSXcXcXcXcXSXoX+ . . .     ",
"    . . . k hXcXcXcXcXcXcXcXcXcXcXcXcXcXSX@X+ . . k hXcXcX2X|.~.~.~.~.~.|.~.~.|.~.~.~.~.~.T.P E Q Q.yXuXuXsXcXcXSXoX+ . . .     ",
"    . . . k hXcXcXcXcXcXcXcXcXcXcXcXcXcXSX@X+ . . k hXcXmXqXx.x.u.u.u.u.i.i.i.i.u.u.u.u.x.8.C.m.m.A.I.H.H.oXhXcXSXoX+ . . .     ",
"    . . . k hXcXcXcXcXcXcXcXcXcXcXcXcXcXSXoX+ . . k hXcXmXeXl.a.h.h.h.j.s.s.a.s.h.h.h.h.j.9.C.m.A.m.m.m.Q ).cXcXSX@X+ . . .     ",
"    . . . k hXcXcXcXcXcXcXcXcXcXcXcXcXcXSX@X+ . . k hXcXmXeXl.a.h.h.h.h.a.a.a.a.h.h.a.j.j.0.C.m.m.A.m.m.m.).hXcXcX@X+ . . .     ",
"    . . . h uXsXsXsXsXsXsXsXsXsXuXsXsXsXsX{.+ . . k hXcXmXwXr.q.e.e.e.q.q.q.r.q.w.t.d.a.j.0.C.C.m.m.m.A.Q ).cXcXSXoX+ . . .     ",
"    . . . 9 oX@X@X@X@X@X@X@X@X@X@X@X@X@X$XQ + . . k hXcXBX6X,.:.>.>.>.>.>.:.>.>.-.4.h.h.d.0.C.m.m.C.m.C.M.R.kXmXmXoX+ o o .     ",
"    . . . 8 ).).{._.{.).{.{.{.).{.{.{._.oXY O . . k hXcXBX5X=.*.&.*.*.*.*.*.&.*.#.2.h.h.j.0.m.C.C.m.C.m.W R.kXmXmXoXO o o .     ",
"    . . . 8 ).{.{.{.{.{.{._.{.{.{._.{._.oXY . . . k hXcXBX5X-.*.*.*.*.*.*.*.*.*.&.2.y.h.j.0.Z.m.m.m.m.m.8.P.lXcXVX+X+ O . .     ",
"    . . . 8 T.T.T.T.T.T.T.T.T.T.T.T.T.T.Q.L + . . k hXxXNX:X..} } } } } }  .&.*.&.2.d.h.j.0.m.m.m.A.H.I.H.oXlXcXVX+X+ O . .     ",
"    . . . < V S V A A A A A A A V A A A S h . . . k hXcXBX-X/ f d / / / d ' o.*.$.3.d.h.j.0.C.m.m.Q.yXyXyXsXcXcXSXOX+ . . .     ",
"    . . . < c n n n v n v n n v n n n n M q . . . k hXcXBX=Xs p t t t i u _ o.*.$.3.y.d.j.0.C.m.m.).cXnXcXcXcXcXmX@X+ . . .     ",
"    . . . ; c n n n n v n n n n n n v n n q . . . k hXcXSX=Xa u t i i i u _ X.*.O.1.p.c.j.9.m.m.Q ).hXcXcXcXcXnXDX@X+ . . .     ",
"    . . . < N B N B B N B V N V N V N N V g . . . k hXcXBX;X] ( ) ) ( ( ( [ <.<.5.7.c.b.b.0.L.K.H.@XlXcXcXhXsXsXhX{.+ . . .     ",
"    . . . 3 E Q Q Q Q Q Q Q Q Q Q Q Q Q Q V O . . k hXcXcXgX8X8X7X8X8X8X8X9X0X0X0XrXaXaXaXpXuXuXuXsXcXcXcX4X@X@X@XQ o . . .     ",
"    . . . 5 m.m.m.C.C.m.m.C.m.C.m.m.A.m.A.S . . . k hXcXcXcXBXcXxXcXcXcXcXmXcXBXcXBXmXcXcXmXcXcXcXcXcXcXcX3X{.{.}.T o . . .     ",
"    . . . 5 m.m.C.m.C.m.C.m.C.m.A.A.m.m.A.S + . . k hXcXcXcXcXcXcXcXcXcXcXcXcXmXcXcXcXcXcXcXcXcXcXcXcXcXmX4X{.{.oXY . . . .     ",
"    . . . 3 E Q Q Q m.m.m.C.m.C.m.m.m.A.A.S . . . h uXuXsXsXsXsXsXsXsXsXsXsXsXsXsXsXsXsXsXsXsXsXsXsXsXsXsX,X).)._.P + . . .     ",
"    . . . < n N N J m.m.m.A.A.m.A.m.m.m.A.A . . . 9 oX@X@X@X@X@X#X#X@X$X@X$X@X$X@X#X@X@X#X#X@X@X@X@X@X@X@X).A.F.G.F o . . .     ",
"    . . . < c n n F M.m.m.m.m.m.m.m.A.A.A.S . . . 8 ).{.{._.{._._.{._._._.{._._._.{._._._.{._._.{.{.{.{.{.T.m.m.C.S o . . .     ",
"    . . . < n n n S m.m.A.m.m.A.m.A.m.m.A.A + . . 8 ).{.{.{.{.{.{.}._.}.}.{._.{.{.{.{.{.{.{.{.{.'.'.{._.{.R.C.m.A.S o . . .     ",
"    . . . ; c n n F m.m.A.m.m.A.m.m.A.m.m.G - & & q Q.Q.).Q.).).!._././././././././.Q.)././.Q.)./.Q.W.~.).U.I P Y N o . . .     ",
"    . . . ; n n n S m.m.m.A.m.m.m.C.m.C.m.Q I P P E A.F.A.F.F.A.A.F.F.A.A.F.F.A.A.F.F.A.A.F.F.A.F.S.F.S.G.J = & & &             ",
"    . . . ; n n n S m.A.m.m.m.A.C.m.C.m.m.C.m.A.C.m.m.m.m.m.m.m.m.m.m.m.m.m.m.m.m.m.m.m.m.m.m.m.M.M.M.M.C.S o . . .             ",
"    . . . < n n n S m.m.m.m.m.A.m.C.C.m.C.m.C.m.C.m.m.C.m.C.C.m.C.C.m.C.C.C.m.C.C.C.m.C.C.C.m.C.M.C.C.C.A.S o . . .             ",
"    . . . ; c n n S Q Q Q Q Q Q Q Q Q Q Q Q Q Q Q Q Q Q Q Q Q Q Q Q Q Q Q Q Q Q Q Q Q Q Q Q Q Q W R P P I N o . . .             ",
"    . . . ; c n n n N N V N V N N N V N B N B B B B N B B B N B B N B B N B B N B N B B N N V N V j = & & &                     ",
"    . . . < n n n n n n n n n n n n n n n n n n n n v n n n v n n n n n v n n n n n n n n n n n n w . . . .                     ",
"    . . . ; n n n n n n n n n n n n n n n n n n n n n n n n n n n n n n n n n n n n n n n n n n n w . . . .                     ",
"    . . . ; k x k x x x x k x x z z z z z z x x z z z z z z z z z z z z z z z z z z z z x x x x x 0 o . . .                     ",
"    . . . + @ @ @ @ @ & @ @ @ @ # # # # # # # # # # # # # # # # @ @ @ @ @ # # # @ # # # # # # # @ @                             ",
"    . . . . . . . . . . . . . . . . . . . . . . . . . . . . . . . . . . . . . . . . . . . . . . . .                             ",
"    . . . . . . . . . . . . . . . . . . . . . . . . . . . . . . . . . . . . . . . . . . . . . . . .                             ",
"    . . . . . . . . . . . . . . . . . . . . . . . . . . . . . . . . . . . . . . . . . . . . . . . .                             ",
"                                                                                                                                ",
"                                                                                                                                ",
"                                                                                                                                ",
"                                                                                                                                "
};
