/* XPM */
static char *b83269f995234e93ed93c4bf9935bd37UhkB9wbkdlu5D5br[] = {
/* columns rows colors chars-per-pixel */
"64 64 36 1 ",
"  c #121619",
". c #151A1D",
"X c #181B1E",
"o c #161B20",
"O c #1A1E22",
"+ c #1C2124",
"@ c #1D2228",
"# c #212527",
"$ c #222629",
"% c #25292C",
"& c #656A6E",
"* c #666E71",
"= c #6A6F73",
"- c #6B7276",
"; c #6D7579",
": c #6F787C",
"> c #70767A",
", c #71797C",
"< c #94999D",
"1 c #979FA2",
"2 c #999FA3",
"3 c #97A1A3",
"4 c #9AA2A5",
"5 c #9DA6AA",
"6 c #9FA8AC",
"7 c #A0A6A9",
"8 c #A1A9AC",
"9 c #A7ACB0",
"0 c #A8ADB0",
"q c #E6EAED",
"w c #EAEEF1",
"e c #EDF1F4",
"r c #F0F4F7",
"t c #F3F7FA",
"y c #F5FAFD",
"u c #FBFFFF",
/* pixels */
"Xoo.ooooo..+ .O.XX..XXX.XXXX.....O...O.oX....XXX.O.XXXXXXXX...XX",
"XX..oooo...o..+.XX.X.+OXXXX...............XO..+OX .OXXXXXXX...X ",
"Xo. ooooo ........XX. . XX..............X..X OX   O X   XXX. .. ",
"@@@O@@OO++++OO++X..X@%%%+++O++++++#+@@@@+X+++++O+O O%%%$#OO+++++",
"12222221--==-=-&XXX#qrrw5434433344333333-*-*====OO.#qwww63333333",
"68666665;;;,>>>-XX %euuy0888886666666666,;;,>>>-+  %wuuu08666688",
"66666665,;;;->--+XX$euuy8855866666665665;;-;>---+X.%euut88656666",
"55255552;;;;;>-=+  #ryyt8745544555553553,;;;;;--O. #wuur85535556",
"::::,,,,;;,,-;,*OXX+7908:;::::::::::;:::;;::--,*OX +4007,,;;,:::",
";;;;-;--;-----,*oX +<774;;;;;-;;;;;;-;;;;-;*;;,*X X#3755;;;;;;;:",
"--;;-,;;;;,;,-,-+X.@2977:;;;;;;;;;;;;;;;:;:;,-;-#X $2885;;;;;;;;",
";:;;;-;;;--;*--*o..$<774:;;;;;;;;;-;;;;;:--;*--*+  $<773;;;;;;;;",
";;----,;-;,*#OO+oooo>::;;;-;----;;;;;*;-*:,*$X++XX.X>>,;;;;;-;--",
"-:::-,-,;-,*O . oooo=-;;;;;;>>>>;;>;;:>;;-;=O ..XX.O=;;;;;;;:-:;",
",;-:,-;,;;,-+  Oooo@=:;;;;-;>>>>;>;:;;;:;;,-O X.OX.+-;;;;;;;;:;-",
"-****-*-****# .Oooo@&=-*-**-==&=*-***===**;&+X..XO.+&-===**--***",
"++++++O+OO#OX....+.+.+++OOOOOO@@@++++O+X++++o.o..XXoO@O@@O+O@OOO",
".....+..X.X..X..........oooooOoo  ..XXXX.....oo.Xoo ooo.. .o..oo",
"..+ X  .. .. ....... .. OoooooooO.X.X X ....  ...o. . oo. o.oOX.",
".. X#%$##++#++++++++@+@@OOOoOOOO .XX#$$%++@@+@@+@O@@@@OO+++oOOOO",
"XXX$qeee5333333344333333-*--===&+..$qttw3333335334412311*-======",
"XX $ruuy0688866688666655::;:>>>-O. %euuy0688656668866865:::>>>>>",
"XXX$ruuy0666665566556665;;;;;;;=+X.$euyt0888555566666666:;--;;-;",
"XX #wyyr8335555545555554;;;;>>;-X..#euyt8353555545544652;;;;;;;;",
"XX.O7007,,::::::::::::::;;::;;;=+X #4007,::::::::::;:::;;:;:;;;;",
" XX+<775>;--;:;;;;;;;;;-;-;-;;;=O .+3774:--;;;;;;-;;;;;;;;;*;:;;",
"XX #2884;;:;;-;>-;;;-;;;:;:;;;;-#X #3887;;;;;;;;;;;;;;;-;:;;::-:",
".X #<754:-;;;;;-;;;;;;;:;--;*--&X. $<774:;;;;;;;;;;;;;;;;;-;&-=&",
"XX..:,;:;;;;;-->;---;----;,*$X+++X..>>,>------;;-;;;;;;;=;>=@@o@",
".X.+-;-;;;;;;;->;;;;;,>;;-;*+......+=>>-,,;,>-->;;;;>;;;;;;=oooo",
"XX.@-:;-;;;;>>;-;;;;;-,-:::-+ ..O..@=,---->->>;-;;;;;;>>;:>;o oo",
"XX.@&-*--**-==*==-*--==-**-&+..OooX+*=-=-==;===*--**======;&Oooo",
" oooOOOO+O+OO+@O@++++X#X+++O.....oooO@@+OOOOOO@@OOOO+O+X#XOOXX..",
"oo.oooO ooXooooo  X..XXX......+.o...... oooooOoooooO XXXXXX...O.",
"o. oooooo oooXOo..X.X.. . ......... . . ooooooooo.o.X.X X .. .X.",
"O@@@O@@O@OO+OOOO..XX##$%#++@+++@@O@@+@@@OOOOOOOO..XO#$$%#++#++++",
"34432221==-====&+X.$qttw3333333344413331=----==&+oX#qtrw43333333",
"68886666>>>:>;>-X. %euuy0668666688866655:;;:>>>-XX %euuy08886686",
"56665565;;;;;;;=+X.$euyt0868556566566685:;;;;;;-OX.$ruut06666666",
"55545552;;;:;;;-O. $euyt8336555554554554:;=>;;;=OX #wuyy64535536",
"::::::::;;::;;>=+. +4007,,,,;:::::::::::;;::;;;=+X O7808,,;:::::",
";;;-;;-;;-;-;;;*O .+3777;;;;;;-;;;;;;;;-;;;-;;;=X X#<774;;;-;;;:",
";;;;-;;;:;,-;;;-#X $3884;;;;;;-:-;;;;-;;;;:;:-;-#  $4085;;;;;;-;",
";;-;;;;;:--;*-;&X. $<774;;;;:;:-;;;-;;;:;--;*--&OX $<764,;;;;;;;",
"-;;;-;---,,&@oO@.+.X>>>>;---;----;;;;----;,*%X++XX.X>,>,;---;;-;",
":;;;;;;;--;-@.o ...+=>;;-,,-,->>;;;;;;;>;-;*+.o XX.+----,;:-;;--",
";;;;;;;:;;,-O .o+.X+=,;;,--,>>>>;;;;;;;;:::-+ ..oo.@*:;-;;;::;;;",
"--**---*==-&@..oooX+&*-=-=*==**===-=-===**-&+..Ooo.@&--==-*-*-**",
"X++++OO+++OOXXX..ooOOO++++++X++O@++++X#X++++..O.o.ooOO@@O++++@++",
".. XXXXXX XX..O..oX oooo .....XX  X.X.XX......O.Xoo.ooooo  .... ",
".OOXX     X . .... .. o . o.XXXX..X.X.X ........oo. ooooooo.....",
".. .$%%$####+++++@@@+@++++++O++X..XX##$%+++++++++O@OOOOO+o+oO++O",
"+.X$qrrw5333333345343333-**-**=*+O.$qtrw3333333324222211*--=-&-=",
".. $ruuy0868668668666665::;:::;;.. %wuuu0688666669866665,,;;>>>>",
".XX$euyu0566666666665665:-;;;;-=+X.$ruyr0868656665666665;;------",
"...#wuyt8436363635553553;;-:;;;=X. #eyyr8336635355525555;;;;>>->",
"X X+7088,,;:::::,,;,::::;-,;-;,&+X #4087,,;;,;::::::,,,,;;,:--:;",
" XX+1775;;;;;;;;;;;;:;;;;;;=;-:-OXX+3777,;;;-;;;:;;;;;;;;;-*,---",
"XX #2775;-;;;-;;--,-;-;;;;,;>;;-+X.#3877;;;-;-;;;;;----;-;;;,;;,",
"XXX#<754;;;;;;;;;;;;;;;;;--;*--&O  $<774;-,-:::;;;;;;;;;;--;*---",
"XXXX>>>>>;-;;;-;>-;;--,-;;,-@X++O..X>>,;--,,-,--;--;-,--;,,*#OO#",
".X.O----;;-;;;;---;;,,-;;--*+......+=>--,---;->-;;;;;-,-;---O   ",
"oo.+-,;;;;;>:;;;>>-----;;-,-O X..O.@=,,--,-,,-;,;;;;-,;;;;;;O.OO",
".O.@*>;;;;;--;-;>-,,-,;;-;;*@..Oo.X+*>-,,-->->-;;-;;;;-;;;;*+O ."
};
